<svg xmlns="http://www.w3.org/2000/svg" version="1.1" xmlns:xlink="http://www.w3.org/1999/xlink" xmlns:svgjs="http://svgjs.dev/svgjs" width="1500" height="1500" viewBox="0 0 1500 1500"><rect width="1500" height="1500" fill="#ffffff"></rect><g transform="matrix(0.6666666666666666,0,0,0.6666666666666666,249.7583419019894,354.65371120107966)"><svg viewBox="0 0 312 247" data-background-color="#000000" preserveAspectRatio="xMidYMid meet" height="1187" width="1500" xmlns="http://www.w3.org/2000/svg" xmlns:xlink="http://www.w3.org/1999/xlink"><g id="tight-bounds" transform="matrix(1,0,0,1,0.07539732657929221,-0.09999999999999432)"><svg viewBox="0 0 311.8492053468414 247.2" height="247.2" width="311.8492053468414"><g><svg viewBox="0 0 395.52 313.5250702058276" height="247.2" width="311.8492053468414"><g transform="matrix(1,0,0,1,0,233.27811052107467)"><svg viewBox="0 0 395.52 80.24695968475295" height="80.24695968475295" width="395.52"><g id="textblocktransform"><svg viewBox="0 0 395.52 80.24695968475295" height="80.24695968475295" width="395.52" id="textblock"><g><svg viewBox="0 0 395.52 80.24695968475295" height="80.24695968475295" width="395.52"><g transform="matrix(1,0,0,1,0,0)"><svg width="395.52" viewBox="1.98 -36.01 241.61 49.019999999999996" height="80.24695968475295" data-palette-color="#ffffff"><path d="M35.91-26.44L35.91-26.44 31.74-24.68Q31.25-26.27 30.43-27.59 29.61-28.91 28.48-29.85 27.34-30.79 25.9-31.31 24.46-31.84 22.75-31.84L22.75-31.84Q20.92-31.84 19.4-31.23 17.87-30.62 16.66-29.58 15.45-28.54 14.55-27.15 13.65-25.76 13.05-24.18 12.45-22.61 12.15-20.92 11.84-19.24 11.84-17.63L11.84-17.63Q11.84-15.06 12.44-12.52 13.04-9.99 14.34-7.96 15.65-5.93 17.72-4.68 19.8-3.42 22.75-3.42L22.75-3.42Q24.37-3.42 25.27-4.14 26.17-4.86 26.17-6.67L26.17-6.67 26.17-17.46 35.86-17.46 35.86 0 33.06 0 31.35-2.76Q29-0.98 26.18-0.13 23.36 0.71 20.43 0.71L20.43 0.71Q17.85 0.71 15.47 0.07 13.09-0.56 11.04-1.73 8.98-2.91 7.31-4.57 5.64-6.23 4.46-8.25 3.27-10.28 2.62-12.66 1.98-15.04 1.98-17.63L1.98-17.63Q1.98-20.21 2.62-22.6 3.27-24.98 4.46-27.01 5.64-29.05 7.31-30.71 8.98-32.37 11.04-33.54 13.09-34.72 15.47-35.35 17.85-35.99 20.43-35.99L20.43-35.99Q22.92-35.99 25.31-35.4 27.69-34.81 29.74-33.63 31.79-32.45 33.39-30.65 34.99-28.86 35.91-26.44ZM61.72-28.2L67.43-28.2 57.18-3.39Q55.42 0.85 53.26 5.02 51.1 9.18 48.58 13.01L48.58 13.01 45.36 11.06Q45.97 9.96 46.8 8.52 47.63 7.08 48.44 5.54 49.24 4 49.92 2.5 50.61 1 50.97-0.24L50.97-0.24 38.64-28.2 46.9-28.2 55.27-9.13 61.72-28.2ZM114.5-16.46L114.5-16.46Q114.5-13.55 113.81-10.4 113.13-7.25 111.9-4.26 110.66-1.27 108.93 1.39 107.2 4.05 105.07 6.01L105.07 6.01 101.97 4.32Q102.68 3.05 103.27 1.46 103.85-0.12 104.34-1.88 104.83-3.64 105.2-5.49 105.56-7.35 105.82-9.19 106.07-11.04 106.2-12.77 106.32-14.5 106.32-16.02L106.32-16.02Q106.32-16.87 106.27-17.87 106.22-18.87 106.06-19.87 105.9-20.87 105.59-21.79 105.27-22.71 104.72-23.43 104.17-24.15 103.35-24.57 102.53-25 101.39-25L101.39-25Q100.26-25 99.47-24.4 98.68-23.8 98.12-22.85 97.55-21.9 97.22-20.7 96.89-19.51 96.72-18.3 96.55-17.09 96.49-15.99 96.43-14.89 96.43-14.14L96.43-14.14 96.43 0 88.2 0 88.2-13.13Q88.2-13.99 88.23-15.2 88.25-16.41 88.17-17.72 88.08-19.04 87.85-20.35 87.62-21.66 87.12-22.68 86.62-23.71 85.76-24.35 84.91-25 83.61-25L83.61-25Q82.51-25 81.77-24.39 81.03-23.78 80.52-22.81 80.02-21.85 79.74-20.64 79.46-19.43 79.33-18.23 79.19-17.02 79.17-15.93 79.15-14.84 79.15-14.14L79.15-14.14 79.15 0 70.87 0 70.87-28.2 74.04-28.2 77.07-21.63Q78.1-25.05 80.31-26.97 82.51-28.88 86.18-28.88L86.18-28.88Q89.47-28.88 91.65-27.51 93.82-26.15 95.06-23.07L95.06-23.07Q95.77-24.41 96.64-25.49 97.5-26.56 98.57-27.32 99.63-28.08 100.92-28.48 102.22-28.88 103.78-28.88L103.78-28.88Q106.66-28.88 108.7-27.94 110.74-27 112.03-25.34 113.33-23.68 113.91-21.4 114.5-19.12 114.5-16.46ZM149.33-10.74L149.33-10.74Q149.33-8.47 148.76-6.74 148.19-5 147.15-3.74 146.11-2.47 144.69-1.61 143.28-0.76 141.61-0.24 139.93 0.27 138.07 0.49 136.2 0.71 134.27 0.71L134.27 0.71Q131.73 0.71 129.58 0.33 127.43-0.05 125.54-0.87 123.65-1.68 121.9-2.98 120.16-4.27 118.43-6.13L118.43-6.13 123.41-11.18Q124.09-9.5 125.29-8.07 126.48-6.64 127.91-5.62 129.34-4.59 130.88-4 132.41-3.42 133.78-3.42L133.78-3.42Q135.39-3.42 136.81-3.65 138.22-3.88 139.27-4.42 140.32-4.96 140.92-5.85 141.52-6.74 141.52-8.08L141.52-8.08Q141.52-9.11 141.06-9.84 140.59-10.57 139.85-11.1 139.1-11.62 138.15-11.99 137.2-12.35 136.21-12.61 135.22-12.87 134.27-13.07 133.32-13.28 132.59-13.5L132.59-13.5Q131.14-13.92 129.58-14.39 128.02-14.87 126.51-15.48 124.99-16.09 123.64-16.88 122.28-17.68 121.26-18.76 120.23-19.85 119.62-21.28 119.01-22.71 119.01-24.56L119.01-24.56Q119.01-26.78 119.56-28.5 120.11-30.22 121.11-31.49 122.11-32.76 123.48-33.63 124.85-34.5 126.48-35.02 128.12-35.55 129.96-35.78 131.8-36.01 133.73-36.01L133.73-36.01Q136.37-36.01 138.53-35.52 140.69-35.03 142.52-34.13 144.35-33.23 145.88-31.97 147.4-30.71 148.75-29.17L148.75-29.17 143.77-24.12Q143.18-25.88 142.14-27.29 141.11-28.71 139.84-29.72 138.57-30.74 137.18-31.29 135.78-31.84 134.49-31.84L134.49-31.84Q132.81-31.84 131.39-31.6 129.97-31.37 128.96-30.85 127.95-30.32 127.39-29.43 126.82-28.54 126.82-27.22L126.82-27.22Q126.82-26.17 127.24-25.44 127.65-24.71 128.35-24.19 129.05-23.68 129.92-23.35 130.8-23.02 131.74-22.78 132.68-22.53 133.6-22.35 134.51-22.17 135.27-21.95L135.27-21.95Q136.74-21.53 138.35-21.07 139.96-20.61 141.52-19.98 143.08-19.36 144.5-18.55 145.92-17.75 146.99-16.64 148.06-15.53 148.7-14.07 149.33-12.62 149.33-10.74ZM174.14-28.2L179.85-28.2 169.59-3.39Q167.84 0.85 165.68 5.02 163.52 9.18 161 13.01L161 13.01 157.78 11.06Q158.39 9.96 159.22 8.52 160.05 7.08 160.85 5.54 161.66 4 162.34 2.5 163.03 1 163.39-0.24L163.39-0.24 151.06-28.2 159.32-28.2 167.69-9.13 174.14-28.2ZM212.12-16.16L212.12-16.16Q212.12-13.31 211.43-10.21 210.73-7.1 209.48-4.13 208.24-1.15 206.51 1.48 204.77 4.1 202.7 6.01L202.7 6.01 199.6 4.32Q200.26 3.1 200.84 1.59 201.43 0.07 201.9-1.62 202.38-3.32 202.76-5.13 203.14-6.93 203.39-8.7 203.65-10.47 203.78-12.15 203.92-13.82 203.92-15.26L203.92-15.26Q203.92-16.21 203.84-17.3 203.77-18.38 203.54-19.47 203.31-20.56 202.92-21.56 202.53-22.56 201.88-23.32 201.23-24.07 200.32-24.54 199.4-25 198.16-25L198.16-25Q196.94-25 195.98-24.45 195.03-23.9 194.3-23.01 193.57-22.12 193.04-20.97 192.52-19.82 192.19-18.62 191.86-17.41 191.71-16.24 191.56-15.06 191.56-14.14L191.56-14.14 191.56 0 183.29 0 183.29-28.2 186.46-28.2 190.25-21.63Q190.93-23.27 191.96-24.61 192.98-25.95 194.27-26.9 195.57-27.86 197.14-28.37 198.72-28.88 200.55-28.88L200.55-28.88Q203.48-28.88 205.65-27.93 207.82-26.98 209.26-25.28 210.71-23.58 211.41-21.25 212.12-18.92 212.12-16.16ZM243.59-21.22L243.59-21.22 240.02-19.8Q239.17-22.49 237.17-23.93 235.17-25.37 232.36-25.37L232.36-25.37Q230.84-25.37 229.66-24.89 228.48-24.41 227.59-23.58 226.69-22.75 226.07-21.66 225.45-20.56 225.06-19.31 224.67-18.07 224.5-16.74 224.33-15.41 224.33-14.16L224.33-14.16Q224.33-12.82 224.47-11.45 224.62-10.08 224.97-8.83 225.33-7.57 225.91-6.48 226.5-5.4 227.39-4.59 228.28-3.78 229.51-3.32 230.75-2.86 232.36-2.86L232.36-2.86Q233.65-2.86 234.82-3.25 236-3.64 236.97-4.35 237.95-5.05 238.71-6.03 239.46-7.01 239.9-8.2L239.9-8.2 243.49-6.88Q242.69-4.96 241.35-3.55 240.02-2.15 238.34-1.23 236.65-0.32 234.73 0.12 232.8 0.56 230.82 0.56L230.82 0.56Q227.62 0.56 224.89-0.52 222.15-1.61 220.16-3.58 218.17-5.54 217.05-8.24 215.93-10.94 215.93-14.16L215.93-14.16Q215.93-17.41 217.04-20.12 218.15-22.83 220.13-24.78 222.1-26.73 224.84-27.81 227.57-28.88 230.82-28.88L230.82-28.88Q232.87-28.88 234.82-28.43 236.78-27.98 238.45-27.04 240.12-26.1 241.45-24.66 242.78-23.22 243.59-21.22Z" opacity="1" transform="matrix(1,0,0,1,0,0)" fill="#000000" class="wordmark-text-0" data-fill-palette-color="primary" id="text-0"></path></svg></g></svg></g></svg></g></svg></g><g transform="matrix(1,0,0,1,100.06532599400039,0)"><svg viewBox="0 0 195.3893480119992 195.3893480119992" height="195.3893480119992" width="195.3893480119992"><g><svg></svg></g><g id="icon-0"><svg viewBox="0 0 195.3893480119992 195.3893480119992" height="195.3893480119992" width="195.3893480119992"><g><path d="M0 97.695c0-53.955 43.739-97.695 97.695-97.695 53.955 0 97.695 43.739 97.694 97.695 0 53.955-43.739 97.695-97.694 97.694-53.955 0-97.695-43.739-97.695-97.694zM97.695 188.153c49.959 0 90.458-40.499 90.458-90.458 0-49.959-40.499-90.458-90.458-90.458-49.959 0-90.458 40.499-90.458 90.458 0 49.959 40.499 90.458 90.458 90.458z" data-fill-palette-color="accent" fill="#000000" stroke="transparent"></path><ellipse rx="96.7177272659396" ry="96.7177272659396" cx="97.6946740059996" cy="97.6946740059996" fill="#000000" stroke="transparent" stroke-width="0" fill-opacity="1" data-fill-palette-color="accent"></ellipse></g><g transform="matrix(1,0,0,1,41.15894597220294,71.7449036214665)"><svg viewBox="0 0 113.07145606759332 51.89954076906618" height="51.89954076906618" width="113.07145606759332"><g><svg xmlns="http://www.w3.org/2000/svg" xmlns:xlink="http://www.w3.org/1999/xlink" version="1.1" x="0" y="0" viewBox="6.100000000000001 29.9 87.80000000000001 40.300000000000004" enable-background="new 0 0 100 100" xml:space="preserve" height="51.89954076906618" width="113.07145606759332" class="icon-cg-0" data-fill-palette-color="quaternary" id="cg-0"><g fill="#000000" data-fill-palette-color="quaternary"><g fill="#000000" data-fill-palette-color="quaternary"><g fill="#000000" data-fill-palette-color="quaternary"><path d="M76.6 30h-2c-2.5 0-4.5 2-4.5 4.5v31.2c0 2.5 2 4.5 4.5 4.5h2c2.5 0 4.5-2 4.5-4.5V34.4C81 31.9 79 30 76.6 30z" fill="#ffffff" data-fill-palette-color="quaternary"></path><path d="M89.4 36.7h-2c-2.5 0-4.5 2-4.5 4.5v17.7c0 2.5 2 4.5 4.5 4.5h2c2.5 0 4.5-2 4.5-4.5V41.1C93.9 38.7 91.9 36.7 89.4 36.7z" fill="#ffffff" data-fill-palette-color="quaternary"></path></g><g fill="#000000" data-fill-palette-color="quaternary"><path d="M23.4 70h2c2.5 0 4.5-2 4.5-4.5V34.4c0-2.5-2-4.5-4.5-4.5h-2c-2.5 0-4.5 2-4.5 4.5v31.2C19 68.1 21 70 23.4 70z" fill="#ffffff" data-fill-palette-color="quaternary"></path><path d="M10.6 63.3h2c2.5 0 4.5-2 4.5-4.5V41.1c0-2.5-2-4.5-4.5-4.5h-2c-2.5 0-4.5 2-4.5 4.5v17.7C6.1 61.3 8.1 63.3 10.6 63.3z" fill="#ffffff" data-fill-palette-color="quaternary"></path></g></g><path d="M63.5 44.8h-27c-2.2 0-4 1.8-4 4v2.4c0 2.2 1.8 4 4 4h27c2.2 0 4-1.8 4-4v-2.4C67.5 46.6 65.7 44.8 63.5 44.8z" fill="#ffffff" data-fill-palette-color="quaternary"></path></g></svg></g></svg></g></svg></g></svg></g><g></g></svg></g><defs></defs></svg><rect width="311.8492053468414" height="247.2" fill="none" stroke="none" visibility="hidden"></rect></g></svg></g></svg>